<svg width="23" height="23" viewBox="0 0 23 23" fill="none" xmlns="http://www.w3.org/2000/svg">
<path d="M24 10.7418C24 10.1895 23.5523 9.74176 23 9.74176H13.2582V0C13.2582 -0.552285 12.8105 -1 12.2582 -1H10.7418C10.1895 -1 9.74176 -0.552285 9.74176 0V9.74176H0C-0.552285 9.74176 -1 10.1895 -1 10.7418V12.2582C-1 12.8105 -0.552285 13.2582 0 13.2582H9.74176V23C9.74176 23.5523 10.1895 24 10.7418 24H12.2582C12.8105 24 13.2582 23.5523 13.2582 23V13.2582H23C23.5523 13.2582 24 12.8105 24 12.2582V10.7418Z" fill="#61BDEE" stroke="#61BDEE" stroke-width="2" stroke-linecap="round" stroke-linejoin="round"/>
</svg>
