<svg width="18" height="18" viewBox="0 0 18 18" fill="none" xmlns="http://www.w3.org/2000/svg">
<g clip-path="url(#clip0_46_707)">
<path fill-rule="evenodd" clip-rule="evenodd" d="M12.913 18.0001H5.08689C4.56799 18.0001 4.07034 17.7939 3.70342 17.427C3.3365 17.0601 3.13037 16.5624 3.13037 16.0435V9.00006C3.13037 8.48115 3.3365 7.98351 3.70342 7.61659C4.07034 7.24967 4.56799 7.04353 5.08689 7.04353H6.65211C6.75589 7.04353 6.85542 7.08476 6.9288 7.15814C7.00219 7.23153 7.04341 7.33106 7.04341 7.43484C7.04341 7.53862 7.00219 7.63815 6.9288 7.71153C6.85542 7.78492 6.75589 7.82614 6.65211 7.82614H5.08689C4.77555 7.82614 4.47696 7.94982 4.25681 8.16997C4.03666 8.39013 3.91298 8.68872 3.91298 9.00006V16.0435C3.91298 16.3549 4.03666 16.6535 4.25681 16.8736C4.47696 17.0938 4.77555 17.2174 5.08689 17.2174H12.913C13.2243 17.2174 13.5229 17.0938 13.7431 16.8736C13.9632 16.6535 14.0869 16.3549 14.0869 16.0435V9.00006C14.0869 8.68872 13.9632 8.39013 13.7431 8.16997C13.5229 7.94982 13.2243 7.82614 12.913 7.82614H11.3478C11.244 7.82614 11.1445 7.78492 11.0711 7.71153C10.9977 7.63815 10.9565 7.53862 10.9565 7.43484C10.9565 7.33106 10.9977 7.23153 11.0711 7.15814C11.1445 7.08476 11.244 7.04353 11.3478 7.04353H12.913C13.4319 7.04353 13.9295 7.24967 14.2965 7.61659C14.6634 7.98351 14.8695 8.48115 14.8695 9.00006V16.0435C14.8695 16.5624 14.6634 17.0601 14.2965 17.427C13.9295 17.7939 13.4319 18.0001 12.913 18.0001ZM11.8698 3.80158L9.39124 1.32306V11.3479C9.39124 11.4517 9.35001 11.5512 9.27663 11.6246C9.20325 11.698 9.10372 11.7392 8.99994 11.7392C8.89616 11.7392 8.79663 11.698 8.72324 11.6246C8.64986 11.5512 8.60863 11.4517 8.60863 11.3479V1.32306L6.13011 3.80158C6.05771 3.86955 5.9617 3.90668 5.86241 3.90512C5.76312 3.90355 5.66833 3.86341 5.59811 3.79319C5.52789 3.72297 5.48775 3.62818 5.48618 3.52889C5.48461 3.42959 5.52175 3.33359 5.58972 3.26119L8.68298 0.167927C8.69362 0.148046 8.70607 0.129185 8.72015 0.111579C8.75629 0.0754212 8.79935 0.0469122 8.84674 0.0277521C8.89414 0.0085919 8.94491 -0.000827063 8.99602 5.69292e-05H8.99994H9.00385C9.05458 -0.000666662 9.10495 0.00875694 9.15199 0.027774C9.19902 0.046791 9.24179 0.0750179 9.27776 0.110796C9.29134 0.12789 9.30326 0.146233 9.31337 0.165579L12.4082 3.2604C12.4455 3.29546 12.4755 3.33767 12.4962 3.38451C12.5169 3.43135 12.528 3.48188 12.5288 3.5331C12.5296 3.58431 12.5201 3.63516 12.5009 3.68264C12.4816 3.73011 12.4531 3.77323 12.4169 3.80945C12.3806 3.84567 12.3375 3.87424 12.29 3.89347C12.2426 3.91269 12.1917 3.92219 12.1405 3.92138C12.0893 3.92057 12.0388 3.90948 11.9919 3.88877C11.9451 3.86805 11.9029 3.83814 11.8678 3.8008L11.8698 3.80158Z" fill="#61BDEE" stroke="#61BDEE"/>
</g>
<defs>
<clipPath id="clip0_46_707">
<rect width="18" height="18" fill="white"/>
</clipPath>
</defs>
</svg>
