<svg width="50" height="50" viewBox="0 0 50 50" fill="none" xmlns="http://www.w3.org/2000/svg">
<path opacity="0.3" d="M17.5834 13.2709C18.0001 12.8542 18.6459 12.8542 19.0626 13.2709C19.4792 13.6876 19.4792 14.3334 19.0626 14.7501L12.4376 21.3751C13.608 22.547 14.2654 24.1355 14.2654 25.7917C14.2654 27.448 13.608 29.0365 12.4376 30.2084L15.3751 33.1459C16.807 31.7127 17.7903 29.8932 18.2047 27.9101C18.6191 25.9269 18.4466 23.866 17.7084 21.9792L30.8334 8.85425C31.2501 8.43758 31.8959 8.43758 32.3126 8.85425C32.7292 9.27091 32.7292 9.91675 32.3126 10.3334L22.7292 19.9167L25.6667 22.8542L38.1876 10.3334C38.6043 9.91675 39.2501 9.91675 39.6668 10.3334C40.0834 10.7501 40.0834 11.3959 39.6668 11.8126L27.1459 24.3334L30.0834 27.2709L40.3959 16.9584C40.8126 16.5417 41.4584 16.5417 41.8751 16.9584C42.2918 17.3751 42.2918 18.0209 41.8751 18.4376L30.0834 30.2292L33.0209 33.1667L40.3959 25.7917C40.8126 25.3751 41.4584 25.3751 41.8751 25.7917C42.2918 26.2084 42.2918 26.8542 41.8751 27.2709L29.3751 39.7917C24.0834 45.0834 15.5209 45.0834 10.2292 39.7917C4.93758 34.5001 4.93758 25.9376 10.2292 20.6459L17.5834 13.2709Z" fill="#61BDEE"/>
<path d="M14.6458 10.3124L7.27075 17.6874C0.354085 24.6041 0.354085 35.8124 7.27075 42.7291C14.1874 49.6458 25.3958 49.6458 32.3124 42.7291L44.8333 30.2083C45.3759 29.6589 45.7904 28.9965 46.0474 28.2684C46.3044 27.5403 46.3974 26.7644 46.3197 25.9962C46.2421 25.228 45.9958 24.4864 45.5984 23.8244C45.201 23.1624 44.6623 22.5963 44.0208 22.1666L44.8333 21.3541C46.8541 19.3333 46.8541 16.0208 44.8333 13.9791C44.4999 13.6458 44.1041 13.3541 43.7083 13.1249C44.1662 12.0851 44.2711 10.924 44.007 9.81903C43.7429 8.71401 43.1242 7.72584 42.2457 7.00549C41.3671 6.28515 40.2768 5.87223 39.1415 5.82985C38.0061 5.78746 36.8881 6.11792 35.9583 6.77075C35.5343 6.11779 34.9703 5.56741 34.3072 5.15957C33.6441 4.75174 32.8984 4.49667 32.1245 4.41289C31.3505 4.3291 30.5675 4.41871 29.8325 4.6752C29.0975 4.93169 28.4288 5.34863 27.8749 5.89575L22.6458 11.1249C22.2213 10.4831 21.6595 9.94354 21.0011 9.54536C20.3426 9.14717 19.6039 8.90028 18.8383 8.82253C18.0728 8.74478 17.2995 8.83811 16.5744 9.09577C15.8493 9.35344 15.1906 9.769 14.6458 10.3124ZM17.5833 13.2708C17.9999 12.8541 18.6458 12.8541 19.0624 13.2708C19.4791 13.6874 19.4791 14.3333 19.0624 14.7499L12.4374 21.3749C13.6078 22.5468 14.2653 24.1353 14.2653 25.7916C14.2653 27.4478 13.6078 29.0364 12.4374 30.2083L15.3749 33.1458C16.8068 31.7125 17.7901 29.8931 18.2045 27.9099C18.6189 25.9267 18.4465 23.8658 17.7083 21.9791L30.8333 8.85409C31.2499 8.43742 31.8958 8.43742 32.3124 8.85409C32.7291 9.27075 32.7291 9.91659 32.3124 10.3333L22.7291 19.9166L25.6666 22.8541L38.1874 10.3333C38.6041 9.91659 39.2499 9.91659 39.6666 10.3333C40.0833 10.7499 40.0833 11.3958 39.6666 11.8124L27.1458 24.3333L30.0833 27.2708L40.3958 16.9583C40.8124 16.5416 41.4583 16.5416 41.8749 16.9583C42.2916 17.3749 42.2916 18.0208 41.8749 18.4374L30.0833 30.2291L33.0208 33.1666L40.3958 25.7916C40.8124 25.3749 41.4583 25.3749 41.8749 25.7916C42.2916 26.2083 42.2916 26.8541 41.8749 27.2708L29.3749 39.7916C24.0833 45.0833 15.5208 45.0833 10.2291 39.7916C4.93742 34.4999 4.93742 25.9374 10.2291 20.6458L17.5833 13.2708ZM47.9166 35.4166C47.9166 42.3124 42.3124 47.9166 35.4166 47.9166V44.7916C40.5833 44.7916 44.7916 40.5833 44.7916 35.4166H47.9166ZM2.08325 14.5833C2.08325 7.68742 7.68742 2.08325 14.5833 2.08325V5.20825C9.41659 5.20825 5.20825 9.41659 5.20825 14.5833H2.08325Z" fill="#61BDEE"/>
</svg>
